{"generated_at": "2026-04-12T20:37:29.632198+00:00", "preset": null, "fail_profile": null, "directory": null, "warnings_only": false, "report_append": false, "fail_on_warnings": false, "max_warning_files": null, "max_total_warnings": null, "summary": {"total": 1, "ok_count": 1, "warning_count": 0, "total_warnings": 0}, "items": [{"path": "/home/clawdy/.openclaw/workspace/tmp/creative-tooling-check/sample-tone-normalized.wav", "exists": true, "kind": "audio", "size_bytes": 64080, "warnings": [], "duration_seconds": 1.0, "bit_rate": 512640, "audio": {"input_file": "'/home/clawdy/.openclaw/workspace/tmp/creative-tooling-check/sample-tone-normalized.wav'", "channels": "1", "sample_rate": "16000", "precision": "32-bit", "duration": "00:00:01.00 = 16000 samples ~ 75 CDDA sectors", "file_size": "64.1k", "bit_rate": "513k", "sample_encoding": "32-bit Signed Integer PCM"}, "ok": true}], "fail_reasons": [], "exit_code": 0}
